<svg version="1.1" xmlns="http://www.w3.org/2000/svg" xmlns:xlink="http://www.w3.org/1999/xlink" width="1864" height="916"><defs><clipPath id="qTMdPNArBhGo"><path fill="none" stroke="none" d=" M 0 0 L 1864 0 L 1864 916 L 0 916 L 0 0 Z"/></clipPath></defs><g transform="scale(1,1)" clip-path="url(#qTMdPNArBhGo)"><g><rect fill="rgb(255,255,255)" stroke="none" x="0" y="0" width="1864" height="916" fill-opacity="1"/><path fill="rgb(21,101,192)" stroke="none" paint-order="stroke fill markers" fill-rule="evenodd" d=" M 907.222989040451 264.55320154743765 L 637.9025770925925 542.9722760611021 L 1261.1609628503056 543.8821423176828 Z" fill-opacity="0.09803921568627451"/><path fill="rgb(0,0,0)" stroke="none" paint-order="stroke fill markers" fill-rule="evenodd" d=" M 906.8159647356304 543.3648503496321 L 928.0291455667503 543.3958184968308 L 928.0601137139505 522.1826376657093 L 906.846932882829 522.1516695185121 L 906.8159647356304 543.3648503496321" fill-opacity="0.09803921568627451"/><path fill="none" stroke="rgb(0,0,0)" paint-order="fill stroke markers" d=" M 906.8159647356304 543.3648503496321 L 928.0291455667503 543.3958184968308 L 928.0601137139505 522.1826376657093 L 906.846932882829 522.1516695185121 L 906.8159647356304 543.3648503496321" stroke-opacity="0.6" stroke-linecap="round" stroke-linejoin="round" stroke-miterlimit="10" stroke-width="2"/><path fill="none" stroke="rgb(21,101,192)" paint-order="fill stroke markers" d=" M 907.222989040451 264.55320154743765 L 637.9025770925925 542.9722760611021" stroke-opacity="0.8" stroke-linecap="round" stroke-linejoin="round" stroke-miterlimit="10" stroke-width="2.5"/><text fill="none" stroke="rgb(255,255,255)" font-family="geogebra-sans-serif, sans-serif" font-size="16px" font-style="normal" font-weight="normal" text-decoration="normal" x="761" y="392" text-anchor="start" dominant-baseline="alphabetic" stroke-opacity="1" stroke-linecap="round" stroke-linejoin="bevel" stroke-miterlimit="10" stroke-width="3">c</text><text fill="rgb(21,101,192)" stroke="none" font-family="geogebra-sans-serif, sans-serif" font-size="16px" font-style="normal" font-weight="normal" text-decoration="normal" x="761" y="392" text-anchor="start" dominant-baseline="alphabetic" fill-opacity="1">c</text><path fill="none" stroke="rgb(21,101,192)" paint-order="fill stroke markers" d=" M 637.9025770925925 542.9722760611021 L 1261.1609628503056 543.8821423176828" stroke-opacity="0.8" stroke-linecap="round" stroke-linejoin="round" stroke-miterlimit="10" stroke-width="2.5"/><text fill="none" stroke="rgb(255,255,255)" font-family="geogebra-sans-serif, sans-serif" font-size="16px" font-style="normal" font-weight="normal" text-decoration="normal" x="949" y="559" text-anchor="start" dominant-baseline="alphabetic" stroke-opacity="1" stroke-linecap="round" stroke-linejoin="bevel" stroke-miterlimit="10" stroke-width="3">a</text><text fill="rgb(21,101,192)" stroke="none" font-family="geogebra-sans-serif, sans-serif" font-size="16px" font-style="normal" font-weight="normal" text-decoration="normal" x="949" y="559" text-anchor="start" dominant-baseline="alphabetic" fill-opacity="1">a</text><path fill="none" stroke="rgb(21,101,192)" paint-order="fill stroke markers" d=" M 1261.1609628503056 543.8821423176828 L 907.222989040451 264.55320154743765" stroke-opacity="0.8" stroke-linecap="round" stroke-linejoin="round" stroke-miterlimit="10" stroke-width="2.5"/><text fill="none" stroke="rgb(255,255,255)" font-family="geogebra-sans-serif, sans-serif" font-size="16px" font-style="normal" font-weight="normal" text-decoration="normal" x="1094" y="391" text-anchor="start" dominant-baseline="alphabetic" stroke-opacity="1" stroke-linecap="round" stroke-linejoin="bevel" stroke-miterlimit="10" stroke-width="3">b</text><text fill="rgb(21,101,192)" stroke="none" font-family="geogebra-sans-serif, sans-serif" font-size="16px" font-style="normal" font-weight="normal" text-decoration="normal" x="1094" y="391" text-anchor="start" dominant-baseline="alphabetic" fill-opacity="1">b</text><path fill="none" stroke="rgb(97,97,97)" paint-order="fill stroke markers" d=" M 907.222989040451 264.55320154743765 L 906.8159647356304 543.3648503496321" stroke-opacity="0.8" stroke-linecap="round" stroke-linejoin="round" stroke-miterlimit="10" stroke-width="2.5"/><path fill="rgb(21,101,192)" stroke="none" paint-order="stroke fill markers" d=" M 912.222989040451 264.55320154743765 C 912.222989040451 267.3146252965916 909.984412789605 269.55320154743765 907.222989040451 269.55320154743765 C 904.461565291297 269.55320154743765 902.222989040451 267.3146252965916 902.222989040451 264.55320154743765 C 902.222989040451 261.7917777982837 904.461565291297 259.55320154743765 907.222989040451 259.55320154743765 C 909.984412789605 259.55320154743765 912.222989040451 261.7917777982837 912.222989040451 264.55320154743765 Z" fill-opacity="1"/><path fill="none" stroke="rgb(0,0,0)" paint-order="fill stroke markers" d=" M 912.222989040451 264.55320154743765 C 912.222989040451 267.3146252965916 909.984412789605 269.55320154743765 907.222989040451 269.55320154743765 C 904.461565291297 269.55320154743765 902.222989040451 267.3146252965916 902.222989040451 264.55320154743765 C 902.222989040451 261.7917777982837 904.461565291297 259.55320154743765 907.222989040451 259.55320154743765 C 909.984412789605 259.55320154743765 912.222989040451 261.7917777982837 912.222989040451 264.55320154743765 Z" stroke-opacity="1" stroke-linecap="round" stroke-linejoin="round" stroke-miterlimit="10"/><text fill="none" stroke="rgb(255,255,255)" font-family="geogebra-sans-serif, sans-serif" font-size="16px" font-style="normal" font-weight="normal" text-decoration="normal" x="911" y="255" text-anchor="start" dominant-baseline="alphabetic" stroke-opacity="1" stroke-linecap="round" stroke-linejoin="bevel" stroke-miterlimit="10" stroke-width="3">A</text><text fill="rgb(21,101,192)" stroke="none" font-family="geogebra-sans-serif, sans-serif" font-size="16px" font-style="normal" font-weight="normal" text-decoration="normal" x="911" y="255" text-anchor="start" dominant-baseline="alphabetic" fill-opacity="1">A</text><path fill="rgb(21,101,192)" stroke="none" paint-order="stroke fill markers" d=" M 642.9025770925925 542.9722760611021 C 642.9025770925925 545.7336998102561 640.6640008417465 547.9722760611021 637.9025770925925 547.9722760611021 C 635.1411533434385 547.9722760611021 632.9025770925925 545.7336998102561 632.9025770925925 542.9722760611021 C 632.9025770925925 540.2108523119481 635.1411533434385 537.9722760611021 637.9025770925925 537.9722760611021 C 640.6640008417465 537.9722760611021 642.9025770925925 540.2108523119481 642.9025770925925 542.9722760611021 Z" fill-opacity="1"/><path fill="none" stroke="rgb(0,0,0)" paint-order="fill stroke markers" d=" M 642.9025770925925 542.9722760611021 C 642.9025770925925 545.7336998102561 640.6640008417465 547.9722760611021 637.9025770925925 547.9722760611021 C 635.1411533434385 547.9722760611021 632.9025770925925 545.7336998102561 632.9025770925925 542.9722760611021 C 632.9025770925925 540.2108523119481 635.1411533434385 537.9722760611021 637.9025770925925 537.9722760611021 C 640.6640008417465 537.9722760611021 642.9025770925925 540.2108523119481 642.9025770925925 542.9722760611021 Z" stroke-opacity="1" stroke-linecap="round" stroke-linejoin="round" stroke-miterlimit="10"/><text fill="none" stroke="rgb(255,255,255)" font-family="geogebra-sans-serif, sans-serif" font-size="16px" font-style="normal" font-weight="normal" text-decoration="normal" x="620" y="530" text-anchor="start" dominant-baseline="alphabetic" stroke-opacity="1" stroke-linecap="round" stroke-linejoin="bevel" stroke-miterlimit="10" stroke-width="3">B</text><text fill="rgb(21,101,192)" stroke="none" font-family="geogebra-sans-serif, sans-serif" font-size="16px" font-style="normal" font-weight="normal" text-decoration="normal" x="620" y="530" text-anchor="start" dominant-baseline="alphabetic" fill-opacity="1">B</text><path fill="rgb(21,101,192)" stroke="none" paint-order="stroke fill markers" d=" M 1266.1609628503056 543.8821423176828 C 1266.1609628503056 546.6435660668368 1263.9223865994595 548.8821423176828 1261.1609628503056 548.8821423176828 C 1258.3995391011517 548.8821423176828 1256.1609628503056 546.6435660668368 1256.1609628503056 543.8821423176828 C 1256.1609628503056 541.1207185685288 1258.3995391011517 538.8821423176828 1261.1609628503056 538.8821423176828 C 1263.9223865994595 538.8821423176828 1266.1609628503056 541.1207185685288 1266.1609628503056 543.8821423176828 Z" fill-opacity="1"/><path fill="none" stroke="rgb(0,0,0)" paint-order="fill stroke markers" d=" M 1266.1609628503056 543.8821423176828 C 1266.1609628503056 546.6435660668368 1263.9223865994595 548.8821423176828 1261.1609628503056 548.8821423176828 C 1258.3995391011517 548.8821423176828 1256.1609628503056 546.6435660668368 1256.1609628503056 543.8821423176828 C 1256.1609628503056 541.1207185685288 1258.3995391011517 538.8821423176828 1261.1609628503056 538.8821423176828 C 1263.9223865994595 538.8821423176828 1266.1609628503056 541.1207185685288 1266.1609628503056 543.8821423176828 Z" stroke-opacity="1" stroke-linecap="round" stroke-linejoin="round" stroke-miterlimit="10"/><text fill="none" stroke="rgb(255,255,255)" font-family="geogebra-sans-serif, sans-serif" font-size="16px" font-style="normal" font-weight="normal" text-decoration="normal" x="1265" y="534" text-anchor="start" dominant-baseline="alphabetic" stroke-opacity="1" stroke-linecap="round" stroke-linejoin="bevel" stroke-miterlimit="10" stroke-width="3">C</text><text fill="rgb(21,101,192)" stroke="none" font-family="geogebra-sans-serif, sans-serif" font-size="16px" font-style="normal" font-weight="normal" text-decoration="normal" x="1265" y="534" text-anchor="start" dominant-baseline="alphabetic" fill-opacity="1">C</text><path fill="rgb(97,97,97)" stroke="none" paint-order="stroke fill markers" d=" M 910.8159647356304 543.3648503496321 C 910.8159647356304 545.5739893489553 909.0251037349535 547.3648503496321 906.8159647356304 547.3648503496321 C 904.6068257363072 547.3648503496321 902.8159647356304 545.5739893489553 902.8159647356304 543.3648503496321 C 902.8159647356304 541.1557113503089 904.6068257363072 539.3648503496321 906.8159647356304 539.3648503496321 C 909.0251037349535 539.3648503496321 910.8159647356304 541.1557113503089 910.8159647356304 543.3648503496321 Z" fill-opacity="1"/><path fill="none" stroke="rgb(0,0,0)" paint-order="fill stroke markers" d=" M 910.8159647356304 543.3648503496321 C 910.8159647356304 545.5739893489553 909.0251037349535 547.3648503496321 906.8159647356304 547.3648503496321 C 904.6068257363072 547.3648503496321 902.8159647356304 545.5739893489553 902.8159647356304 543.3648503496321 C 902.8159647356304 541.1557113503089 904.6068257363072 539.3648503496321 906.8159647356304 539.3648503496321 C 909.0251037349535 539.3648503496321 910.8159647356304 541.1557113503089 910.8159647356304 543.3648503496321 Z" stroke-opacity="1" stroke-linecap="round" stroke-linejoin="round" stroke-miterlimit="10"/><text fill="rgb(0,0,0)" stroke="none" font-family="geogebra-sans-serif, sans-serif" font-size="16px" font-style="normal" font-weight="normal" text-decoration="normal" x="918" y="401" text-anchor="start" dominant-baseline="alphabetic" fill-opacity="1">d</text></g></g></svg>