<svg version="1.1" xmlns="http://www.w3.org/2000/svg" xmlns:xlink="http://www.w3.org/1999/xlink" width="1864" height="916"><defs><clipPath id="xxIWkKwtzToD"><path fill="none" stroke="none" d=" M 0 0 L 1864 0 L 1864 916 L 0 916 L 0 0 Z"/></clipPath></defs><g transform="scale(1,1)" clip-path="url(#xxIWkKwtzToD)"><g><rect fill="rgb(255,255,255)" stroke="none" x="0" y="0" width="1864" height="916" fill-opacity="1"/><path fill="rgb(21,101,192)" stroke="none" paint-order="stroke fill markers" fill-rule="evenodd" d=" M 633 323 L 746.5933028930592 538.71696766762 L 1108.8249335501264 539.6905238196233 Z" fill-opacity="0.09803921568627451"/><path fill="rgb(0,0,0)" stroke="none" paint-order="stroke fill markers" fill-rule="evenodd" d=" M 632.4210504515147 538.4101112549126 L 653.6341772704565 538.4671249676035 L 653.6911909831487 517.2539981486603 L 632.4780641642055 517.1969844359709 L 632.4210504515147 538.4101112549126" fill-opacity="0.09803921568627451"/><path fill="none" stroke="rgb(0,0,0)" paint-order="fill stroke markers" d=" M 632.4210504515147 538.4101112549126 L 653.6341772704565 538.4671249676035 L 653.6911909831487 517.2539981486603 L 632.4780641642055 517.1969844359709 L 632.4210504515147 538.4101112549126" stroke-opacity="0.6" stroke-linecap="round" stroke-linejoin="round" stroke-miterlimit="10" stroke-width="2"/><path fill="none" stroke="rgb(211,47,47)" paint-order="fill stroke markers" d=" M 631.3927781849364 921 L 633.8815531025765 -5" stroke-opacity="0.8" stroke-linecap="round" stroke-linejoin="round" stroke-miterlimit="10" stroke-width="2.5"/><path fill="none" stroke="rgb(97,97,97)" paint-order="fill stroke markers" d=" M -5 536.6969389845676 L 1869 541.7336173816058" stroke-opacity="0.8" stroke-linecap="round" stroke-linejoin="round" stroke-miterlimit="10" stroke-width="2.5"/><path fill="none" stroke="rgb(21,101,192)" paint-order="fill stroke markers" d=" M 633 323 L 746.5933028930592 538.71696766762" stroke-opacity="0.8" stroke-linecap="round" stroke-linejoin="round" stroke-miterlimit="10" stroke-width="2.5"/><text fill="none" stroke="rgb(255,255,255)" font-family="geogebra-sans-serif, sans-serif" font-size="16px" font-style="normal" font-weight="normal" text-decoration="normal" x="675" y="438" text-anchor="start" dominant-baseline="alphabetic" stroke-opacity="1" stroke-linecap="round" stroke-linejoin="bevel" stroke-miterlimit="10" stroke-width="3">c</text><text fill="rgb(21,101,192)" stroke="none" font-family="geogebra-sans-serif, sans-serif" font-size="16px" font-style="normal" font-weight="normal" text-decoration="normal" x="675" y="438" text-anchor="start" dominant-baseline="alphabetic" fill-opacity="1">c</text><path fill="none" stroke="rgb(21,101,192)" paint-order="fill stroke markers" d=" M 746.5933028930592 538.71696766762 L 1108.8249335501264 539.6905238196233" stroke-opacity="0.8" stroke-linecap="round" stroke-linejoin="round" stroke-miterlimit="10" stroke-width="2.5"/><text fill="none" stroke="rgb(255,255,255)" font-family="geogebra-sans-serif, sans-serif" font-size="16px" font-style="normal" font-weight="normal" text-decoration="normal" x="927" y="555" text-anchor="start" dominant-baseline="alphabetic" stroke-opacity="1" stroke-linecap="round" stroke-linejoin="bevel" stroke-miterlimit="10" stroke-width="3">a</text><text fill="rgb(21,101,192)" stroke="none" font-family="geogebra-sans-serif, sans-serif" font-size="16px" font-style="normal" font-weight="normal" text-decoration="normal" x="927" y="555" text-anchor="start" dominant-baseline="alphabetic" fill-opacity="1">a</text><path fill="none" stroke="rgb(21,101,192)" paint-order="fill stroke markers" d=" M 1108.8249335501264 539.6905238196233 L 633 323" stroke-opacity="0.8" stroke-linecap="round" stroke-linejoin="round" stroke-miterlimit="10" stroke-width="2.5"/><text fill="none" stroke="rgb(255,255,255)" font-family="geogebra-sans-serif, sans-serif" font-size="16px" font-style="normal" font-weight="normal" text-decoration="normal" x="877" y="416" text-anchor="start" dominant-baseline="alphabetic" stroke-opacity="1" stroke-linecap="round" stroke-linejoin="bevel" stroke-miterlimit="10" stroke-width="3">b</text><text fill="rgb(21,101,192)" stroke="none" font-family="geogebra-sans-serif, sans-serif" font-size="16px" font-style="normal" font-weight="normal" text-decoration="normal" x="877" y="416" text-anchor="start" dominant-baseline="alphabetic" fill-opacity="1">b</text><path fill="rgb(21,101,192)" stroke="none" paint-order="stroke fill markers" d=" M 638 323 C 638 325.76142374915395 635.761423749154 328 633 328 C 630.238576250846 328 628 325.76142374915395 628 323 C 628 320.23857625084605 630.238576250846 318 633 318 C 635.761423749154 318 638 320.23857625084605 638 323 Z" fill-opacity="1"/><path fill="none" stroke="rgb(0,0,0)" paint-order="fill stroke markers" d=" M 638 323 C 638 325.76142374915395 635.761423749154 328 633 328 C 630.238576250846 328 628 325.76142374915395 628 323 C 628 320.23857625084605 630.238576250846 318 633 318 C 635.761423749154 318 638 320.23857625084605 638 323 Z" stroke-opacity="1" stroke-linecap="round" stroke-linejoin="round" stroke-miterlimit="10"/><text fill="none" stroke="rgb(255,255,255)" font-family="geogebra-sans-serif, sans-serif" font-size="16px" font-style="normal" font-weight="normal" text-decoration="normal" x="637" y="313" text-anchor="start" dominant-baseline="alphabetic" stroke-opacity="1" stroke-linecap="round" stroke-linejoin="bevel" stroke-miterlimit="10" stroke-width="3">A</text><text fill="rgb(21,101,192)" stroke="none" font-family="geogebra-sans-serif, sans-serif" font-size="16px" font-style="normal" font-weight="normal" text-decoration="normal" x="637" y="313" text-anchor="start" dominant-baseline="alphabetic" fill-opacity="1">A</text><path fill="rgb(21,101,192)" stroke="none" paint-order="stroke fill markers" d=" M 751.5933028930592 538.71696766762 C 751.5933028930592 541.478391416774 749.3547266422132 543.71696766762 746.5933028930592 543.71696766762 C 743.8318791439052 543.71696766762 741.5933028930592 541.478391416774 741.5933028930592 538.71696766762 C 741.5933028930592 535.955543918466 743.8318791439052 533.71696766762 746.5933028930592 533.71696766762 C 749.3547266422132 533.71696766762 751.5933028930592 535.955543918466 751.5933028930592 538.71696766762 Z" fill-opacity="1"/><path fill="none" stroke="rgb(0,0,0)" paint-order="fill stroke markers" d=" M 751.5933028930592 538.71696766762 C 751.5933028930592 541.478391416774 749.3547266422132 543.71696766762 746.5933028930592 543.71696766762 C 743.8318791439052 543.71696766762 741.5933028930592 541.478391416774 741.5933028930592 538.71696766762 C 741.5933028930592 535.955543918466 743.8318791439052 533.71696766762 746.5933028930592 533.71696766762 C 749.3547266422132 533.71696766762 751.5933028930592 535.955543918466 751.5933028930592 538.71696766762 Z" stroke-opacity="1" stroke-linecap="round" stroke-linejoin="round" stroke-miterlimit="10"/><text fill="none" stroke="rgb(255,255,255)" font-family="geogebra-sans-serif, sans-serif" font-size="16px" font-style="normal" font-weight="normal" text-decoration="normal" x="731" y="560" text-anchor="start" dominant-baseline="alphabetic" stroke-opacity="1" stroke-linecap="round" stroke-linejoin="bevel" stroke-miterlimit="10" stroke-width="3">B</text><text fill="rgb(21,101,192)" stroke="none" font-family="geogebra-sans-serif, sans-serif" font-size="16px" font-style="normal" font-weight="normal" text-decoration="normal" x="731" y="560" text-anchor="start" dominant-baseline="alphabetic" fill-opacity="1">B</text><path fill="rgb(21,101,192)" stroke="none" paint-order="stroke fill markers" d=" M 1113.8249335501264 539.6905238196233 C 1113.8249335501264 542.4519475687773 1111.5863572992803 544.6905238196233 1108.8249335501264 544.6905238196233 C 1106.0635098009725 544.6905238196233 1103.8249335501264 542.4519475687773 1103.8249335501264 539.6905238196233 C 1103.8249335501264 536.9291000704693 1106.0635098009725 534.6905238196233 1108.8249335501264 534.6905238196233 C 1111.5863572992803 534.6905238196233 1113.8249335501264 536.9291000704693 1113.8249335501264 539.6905238196233 Z" fill-opacity="1"/><path fill="none" stroke="rgb(0,0,0)" paint-order="fill stroke markers" d=" M 1113.8249335501264 539.6905238196233 C 1113.8249335501264 542.4519475687773 1111.5863572992803 544.6905238196233 1108.8249335501264 544.6905238196233 C 1106.0635098009725 544.6905238196233 1103.8249335501264 542.4519475687773 1103.8249335501264 539.6905238196233 C 1103.8249335501264 536.9291000704693 1106.0635098009725 534.6905238196233 1108.8249335501264 534.6905238196233 C 1111.5863572992803 534.6905238196233 1113.8249335501264 536.9291000704693 1113.8249335501264 539.6905238196233 Z" stroke-opacity="1" stroke-linecap="round" stroke-linejoin="round" stroke-miterlimit="10"/><text fill="none" stroke="rgb(255,255,255)" font-family="geogebra-sans-serif, sans-serif" font-size="16px" font-style="normal" font-weight="normal" text-decoration="normal" x="1113" y="530" text-anchor="start" dominant-baseline="alphabetic" stroke-opacity="1" stroke-linecap="round" stroke-linejoin="bevel" stroke-miterlimit="10" stroke-width="3">C</text><text fill="rgb(21,101,192)" stroke="none" font-family="geogebra-sans-serif, sans-serif" font-size="16px" font-style="normal" font-weight="normal" text-decoration="normal" x="1113" y="530" text-anchor="start" dominant-baseline="alphabetic" fill-opacity="1">C</text><text fill="rgb(0,0,0)" stroke="none" font-family="geogebra-sans-serif, sans-serif" font-size="16px" font-style="normal" font-weight="normal" text-decoration="normal" x="610" y="433" text-anchor="start" dominant-baseline="alphabetic" fill-opacity="1">d</text></g></g></svg>